<?xml version="1.0" standalone="no"?>
<!DOCTYPE svg PUBLIC "-//W3C//DTD SVG 20010904//EN"
 "http://www.w3.org/TR/2001/REC-SVG-20010904/DTD/svg10.dtd">
<svg version="1.0" xmlns="http://www.w3.org/2000/svg"
 width="1024.000000pt" height="1536.000000pt" viewBox="0 0 1024.000000 1536.000000"
 preserveAspectRatio="xMidYMid meet">

<g transform="translate(0.000000,1536.000000) scale(0.100000,-0.100000)"
fill="#000000" stroke="none">
<path d="M5413 11376 c-57 -18 -105 -49 -147 -96 -61 -68 -69 -97 -74 -272
l-4 -158 -1327 -2 -1326 -3 -59 -23 c-160 -60 -280 -190 -321 -347 -13 -52
-15 -233 -15 -1457 l0 -1398 -174 0 c-171 0 -176 -1 -203 -24 l-28 -24 0 -189
c0 -180 1 -192 29 -277 69 -209 224 -357 431 -411 53 -13 370 -15 2840 -15
2433 0 2788 2 2838 15 202 53 390 242 427 431 10 50 9 66 -3 96 -21 49 -62 61
-200 56 l-107 -3 -1 95 c-1 52 -3 363 -5 690 l-3 595 368 370 c211 212 379
390 395 416 54 94 54 224 -1 318 -14 25 -74 93 -134 152 -133 133 -189 164
-294 163 -95 0 -145 -24 -244 -119 -45 -43 -81 -76 -82 -74 0 2 -2 284 -4 626
-3 550 -5 628 -20 673 -22 67 -99 150 -167 181 l-53 24 -1145 2 c-922 1 -1153
-1 -1187 -11z m2338 -225 l29 -29 0 -723 0 -722 -384 -391 c-211 -215 -481
-489 -600 -610 -120 -120 -228 -234 -241 -255 -29 -44 -315 -762 -315 -790 0
-36 22 -70 55 -86 55 -26 38 -31 455 133 456 178 377 126 726 480 l303 307 1
-662 0 -662 24 -28 c23 -27 28 -28 142 -33 l118 -5 -63 -67 c-44 -47 -83 -78
-129 -100 l-67 -33 -2730 -3 c-1723 -1 -2753 1 -2793 7 -133 20 -228 94 -294
227 -40 82 -42 89 -46 197 l-4 112 1982 0 1982 0 29 33 c20 23 29 43 29 68 0
41 -22 89 -46 98 -9 4 -815 6 -1791 6 l-1773 0 0 1397 c0 1384 1 1398 21 1443
27 60 74 107 134 136 l50 24 1317 0 1318 0 2 -757 3 -758 28 -57 c36 -73 109
-139 177 -161 46 -15 115 -17 612 -17 392 0 566 3 581 11 74 38 75 154 2 187
-19 9 -171 12 -575 12 -389 0 -556 3 -574 11 -59 27 -57 -13 -54 1054 l3 977
33 29 32 29 1131 0 1131 0 29 -29z m596 -1281 c8 0 64 -48 124 -106 156 -153
157 -172 10 -318 l-88 -88 -161 164 -161 163 87 83 c87 83 135 115 160 107 8
-3 20 -5 29 -5z m-253 -491 c86 -89 155 -165 154 -168 0 -3 -261 -265 -580
-581 l-578 -575 -155 155 c-85 85 -154 158 -153 161 2 4 244 250 538 549 294
298 551 559 570 580 19 21 38 38 41 39 4 0 77 -72 163 -160z m-1184 -1420 c0
-4 -80 -38 -177 -77 -221 -86 -228 -88 -220 -71 7 15 138 341 150 373 7 17 24
3 127 -99 66 -66 120 -123 120 -126z"/>
<path d="M6233 10792 c-21 -20 -78 -87 -127 -147 -49 -61 -103 -125 -120 -142
l-30 -33 -77 75 c-67 66 -81 75 -114 75 -50 0 -95 -44 -95 -93 0 -42 33 -88
131 -183 91 -88 115 -104 154 -104 50 0 86 31 231 197 237 270 242 279 210
341 -20 38 -44 52 -90 52 -28 0 -44 -8 -73 -38z"/>
<path d="M6635 10658 c-23 -27 -26 -39 -22 -77 4 -33 12 -52 32 -68 26 -23 28
-23 373 -25 191 -1 360 -2 375 -1 61 2 103 81 77 144 -24 58 -33 59 -439 59
l-369 0 -27 -32z"/>
<path d="M3110 10071 c-80 -25 -148 -90 -174 -168 -15 -45 -16 -125 -14 -809
l3 -759 29 -53 c50 -89 123 -131 231 -132 87 0 82 -3 655 335 151 89 374 220
494 291 121 71 233 142 249 159 45 44 70 110 71 180 1 119 -45 187 -173 257
-129 70 -850 485 -1046 602 -166 98 -244 121 -325 97z m120 -213 c19 -11 130
-76 245 -143 116 -68 347 -203 515 -300 168 -98 339 -198 381 -222 42 -23 80
-50 83 -59 13 -33 -27 -65 -221 -180 -109 -64 -218 -129 -243 -144 -25 -15
-112 -67 -195 -115 -135 -79 -238 -140 -502 -296 -89 -53 -135 -62 -153 -30
-7 13 -10 264 -10 746 0 482 3 733 10 746 14 25 47 24 90 -3z"/>
<path d="M6258 10003 c-15 -10 -82 -83 -149 -163 -67 -80 -127 -152 -135 -160
-12 -12 -24 -3 -89 64 -73 77 -75 79 -115 73 -49 -6 -69 -21 -87 -65 -23 -55
-4 -87 116 -205 104 -103 110 -107 152 -107 63 0 90 21 214 160 61 68 138 154
172 192 68 76 78 95 69 142 -13 67 -94 105 -148 69z"/>
<path d="M6675 9889 c-35 -10 -65 -54 -65 -97 0 -16 10 -44 23 -63 l23 -34
372 -3 373 -2 23 25 c32 35 41 86 21 125 -30 59 -40 60 -407 59 -183 0 -347
-5 -363 -10z"/>
<path d="M3413 6034 c-10 -4 -13 -74 -13 -302 l0 -296 -42 40 c-89 85 -172
121 -298 130 -131 10 -283 -40 -382 -126 -62 -54 -134 -164 -166 -253 -21 -59
-26 -95 -30 -203 -7 -213 36 -346 155 -473 66 -72 140 -118 232 -145 76 -22
223 -21 299 2 70 22 160 80 203 131 l31 36 -4 -65 c-3 -36 -3 -71 -1 -77 4
-10 42 -13 149 -13 l144 0 0 805 0 805 -47 1 c-27 0 -86 2 -133 4 -47 2 -91 2
-97 -1z m-190 -712 c61 -27 114 -77 145 -136 25 -48 27 -59 27 -181 0 -123 -2
-133 -27 -182 -56 -105 -135 -159 -251 -170 -202 -19 -353 151 -334 376 13
157 103 279 230 312 49 13 161 2 210 -19z"/>
<path d="M5871 5979 c-174 -34 -346 -136 -458 -271 -65 -78 -130 -216 -154
-328 -17 -78 -20 -120 -17 -240 4 -130 7 -154 35 -235 17 -50 48 -119 69 -155
47 -80 179 -213 256 -259 142 -83 352 -125 518 -103 99 14 221 53 293 95 114
67 227 202 277 332 20 52 24 83 28 234 3 139 2 175 -9 182 -8 5 -152 9 -321 9
-302 0 -307 0 -319 -21 -17 -32 -8 -237 11 -249 8 -5 90 -10 183 -10 191 0
185 3 143 -85 -68 -144 -253 -225 -448 -197 -224 33 -368 194 -399 445 -35
286 134 537 389 576 188 29 363 -44 478 -201 l36 -49 67 37 c112 63 181 113
181 133 0 30 -84 136 -154 194 -146 119 -318 177 -526 176 -63 -1 -135 -5
-159 -10z"/>
<path d="M1262 5960 l-22 -9 2 -763 3 -763 510 -5 c281 -3 518 -3 528 -1 15 3
17 17 17 131 0 107 -3 129 -16 134 -9 3 -175 6 -370 6 l-354 0 0 185 0 185
330 0 330 0 0 128 c0 86 -4 132 -12 140 -9 9 -96 12 -330 12 l-318 0 0 180 0
180 365 0 365 0 6 25 c11 44 0 225 -15 234 -18 11 -991 12 -1019 1z"/>
<path d="M7353 5600 c-122 -22 -236 -88 -324 -188 -62 -71 -115 -190 -136
-305 -15 -85 -15 -113 -5 -203 30 -270 178 -443 433 -504 162 -38 329 -21 474
48 85 41 185 123 185 151 0 19 -139 161 -159 161 -7 0 -35 -20 -62 -44 -132
-119 -389 -118 -501 1 -35 37 -78 130 -78 170 l0 33 413 2 412 3 3 100 c5 174
-40 311 -139 419 -62 68 -130 112 -211 137 -73 23 -230 32 -305 19z m217 -252
c78 -20 160 -123 160 -200 0 -25 -31 -28 -294 -28 l-248 0 7 38 c10 56 67 137
120 168 72 42 150 49 255 22z"/>
<path d="M8740 5592 c-82 -22 -145 -58 -198 -116 l-42 -46 -1 43 c-1 23 -1 48
1 56 1 7 -1 24 -4 37 -6 24 -8 24 -139 24 -90 0 -137 -4 -145 -12 -16 -16 -17
-1143 -2 -1153 12 -8 271 -7 279 0 2 3 5 166 5 362 1 352 1 359 24 408 43 94
112 143 213 152 46 5 66 1 111 -19 30 -14 65 -39 77 -56 49 -69 51 -90 51
-478 0 -265 3 -365 12 -370 14 -9 256 -12 269 -3 6 4 9 169 7 445 -3 432 -4
440 -26 494 -50 121 -129 193 -250 230 -77 24 -155 25 -242 2z"/>
<path d="M3947 5583 c-11 -11 -8 -853 4 -902 29 -129 122 -236 236 -271 178
-55 378 -3 493 128 l40 45 0 -82 0 -81 73 -1 c39 -1 99 -3 132 -4 105 -4 95
-64 95 583 0 312 -4 573 -8 580 -7 9 -43 12 -148 10 l-139 -3 -5 -375 c-5
-412 -5 -407 -71 -478 -46 -49 -85 -65 -175 -70 -93 -5 -145 14 -187 70 -43
57 -47 93 -47 470 0 196 -3 363 -6 372 -5 14 -27 16 -143 16 -76 0 -141 -3
-144 -7z"/>
</g>
</svg>
